<?xml version="1.0" encoding="UTF-8"?>
<svg width="204px" height="161px" viewBox="0 0 204 161" version="1.1" xmlns="http://www.w3.org/2000/svg" xmlns:xlink="http://www.w3.org/1999/xlink">
    <!-- Generator: Sketch 48.2 (47327) - http://www.bohemiancoding.com/sketch -->
    <title>Clara Copy 2</title>
    <desc>Created with Sketch.</desc>
    <defs>
        <ellipse id="path-1" cx="81.5308642" cy="96.2843137" rx="69.5308642" ry="64.7156863"></ellipse>
    </defs>
    <g id="Symbols" stroke="none" stroke-width="1" fill="none" fill-rule="evenodd">
        <g id="Clara-Copy-2">
            <g id="Group">
                <g id="Oval-6-Copy-5">
                    <path d="M96.5432099,39.8437053 C104.054132,40.3012406 109.430214,39.1761389 112.671458,36.4684003 C119.794613,30.5177077 120.239706,18.9300964 129.218037,12.2754435 C138.196369,5.62079065 151.849493,3.31677797 164.783563,7.95740355 C177.717633,12.5980291 183.975606,19.2113275 188.972178,32.3913606 C202.283557,67.5043127 156.998529,117.970077 183.21391,118.467378 C189.966169,118.595467 194.524496,116.562267 196.888889,112.367778 C196.811759,122.739513 193.084121,129.708589 185.705975,133.275005 C174.638755,138.62463 163.091436,136.643538 158.518099,132.670693 C153.944763,128.697848 151.93144,125.787412 150.004795,120.339595 C142.998933,100.529687 146.421336,64.5128306 146.421336,52.78626 C146.421336,48.7444778 144.09097,43.1548951 142.011979,41.3058015 C135.911071,35.8795383 127.048063,40.6926117 121.715264,48.2054817 C118.338294,52.9629714 113.142434,52.95108 106.127683,48.1698076 C104.203162,46.8580486 101.008337,44.0826811 96.5432099,39.8437053 Z" id="Path-5" fill="#C42626" transform="translate(146.716049, 71.029412) rotate(-6.000000) translate(-146.716049, -71.029412) "></path>
                    <ellipse id="Oval-7-Copy-8" fill="#A3725A" cx="150.271605" cy="93.127451" rx="11.8518519" ry="11.8382353"></ellipse>
                    <ellipse id="Oval-7-Copy-8" fill="#A3725A" cx="12.2716049" cy="93.127451" rx="11.8518519" ry="11.8382353"></ellipse>
                    <mask id="mask-2" fill="white">
                        <use xlink:href="#path-1"></use>
                    </mask>
                    <use id="Mask" fill="#C78F75" xlink:href="#path-1"></use>
                    <ellipse id="Oval-6" fill="#C42626" mask="url(#mask-2)" cx="33.7283951" cy="29.5955882" rx="41.4814815" ry="32.752451"></ellipse>
                    <ellipse id="Oval-6-Copy" fill="#C42626" mask="url(#mask-2)" cx="127.753086" cy="35.120098" rx="54.9135802" ry="42.2230392"></ellipse>
                </g>
                <circle id="Oval-3-Copy-23" fill="#FFFFFF" cx="113.5" cy="94.5" r="10.5"></circle>
                <path d="M96,130.012741 C96,134.879633 88.25,140 80.5,140 C72.75,140 65,134.879633 65,130.012741 C65,127.547195 72.75,130.358855 80.5,130.358855 C88.25,130.358855 96,127.611397 96,130.012741 Z" id="Oval-5-Copy-4" fill="#000000"></path>
                <circle id="Oval-3-Copy-24" fill="#8B572A" cx="113.5" cy="94.5" r="6.5"></circle>
                <path d="M112.502868,99 C114.986565,99 117,96.9852814 117,94.5 C117,92.0147186 114.986565,90 112.502868,90 C111.891588,90 111.393201,90.084896 111.007705,90.2546879 L111.761684,93.7545487 L109.135814,91.5168892 C108.442385,92.3730576 108.065692,93.3674279 108.005735,94.5 C107.874351,96.9818031 110.01917,99 112.502868,99 Z" id="Oval-4-Copy-12" fill="#000000"></path>
                <circle id="Oval-3-Copy-25" fill="#FFFFFF" cx="47.5" cy="94.5" r="10.5"></circle>
                <polygon id="Rectangle-Copy-12" fill="#000000" points="99.9679232 72.6652232 119.90752 67.6937234 121.628424 74.5958915 101.688827 79.5673913"></polygon>
                <rect id="Rectangle-Copy-13" fill="#000000" x="36" y="65" width="21" height="7"></rect>
                <circle id="Oval-3-Copy-27" fill="#8B572A" cx="46.5" cy="94.5" r="6.5"></circle>
                <path d="M46.5028676,99 C48.9865652,99 51,96.9852814 51,94.5 C51,92.0147186 48.9865652,90 46.5028676,90 C45.8915884,90 45.3932008,90.084896 45.0077045,90.2546879 L45.7616839,93.7545487 L43.1358143,91.5168892 C42.4423852,92.3730576 42.0656921,93.3674279 42.0057351,94.5 C41.8743515,96.9818031 44.0191699,99 46.5028676,99 Z" id="Oval-4-Copy-13" fill="#000000"></path>
            </g>
        </g>
    </g>
</svg>