<?xml version="1.0" encoding="UTF-8"?>
<svg width="666px" height="625px" viewBox="0 0 666 625" version="1.1" xmlns="http://www.w3.org/2000/svg" xmlns:xlink="http://www.w3.org/1999/xlink">
    <!-- Generator: Sketch 48.2 (47327) - http://www.bohemiancoding.com/sketch -->
    <title>Clara Copy 2</title>
    <desc>Created with Sketch.</desc>
    <defs>
        <circle id="path-1" cx="257" cy="257" r="257"></circle>
        <ellipse id="path-3" cx="204.423826" cy="241.611743" rx="175.197233" ry="163.388257"></ellipse>
    </defs>
    <g id="Symbols" stroke="none" stroke-width="1" fill="none" fill-rule="evenodd">
        <g id="Clara-Copy-2">
            <g id="Group" transform="translate(58.000000, 42.000000)">
                <mask id="mask-2" fill="white">
                    <use xlink:href="#path-1"></use>
                </mask>
                <use id="Mask" fill="#104969" xlink:href="#path-1"></use>
                <g mask="url(#mask-2)">
                    <g transform="translate(7.000000, 39.000000)">
                        <g id="Oval-6-Copy-5" stroke-width="1" fill="none">
                            <path d="M242.250501,99.1156475 C261.175805,100.270791 274.721944,97.4302369 282.88892,90.5939857 C300.837168,75.5702203 301.958669,46.3148771 324.581412,29.513817 C347.204155,12.7127569 381.605994,6.89579605 414.196029,18.6120239 C446.786064,30.3282517 462.554305,47.0249037 475.144191,80.3006481 C508.684932,168.950624 394.580043,296.361979 460.635057,297.617518 C477.648756,297.940905 489.134391,292.807667 495.091963,282.217805 C494.897619,308.403416 485.505072,325.998303 466.914323,335.002465 C439.028199,348.508708 409.932367,343.507028 398.408911,333.476751 C386.885455,323.446475 381.812475,316.098472 376.9579,302.344323 C359.305197,252.330074 367.928642,161.398003 367.928642,131.791828 C367.928642,121.587506 362.056808,107.475437 356.818366,102.807014 C341.44588,89.1072807 319.113717,101.258889 305.676639,120.226697 C297.167673,132.237973 284.075641,132.207951 266.400543,120.136631 C261.551317,116.824821 253.501303,109.817827 242.250501,99.1156475 Z" id="Path-5" fill="#C42626" transform="translate(368.671232, 177.850472) rotate(-6.000000) translate(-368.671232, -177.850472) "></path>
                            <ellipse id="Oval-7-Copy-8" fill="#A3725A" cx="377.630182" cy="233.641584" rx="29.8631648" ry="29.8880957"></ellipse>
                            <ellipse id="Oval-7-Copy-8" fill="#A3725A" cx="29.9109566" cy="233.641584" rx="29.8631648" ry="29.8880957"></ellipse>
                            <mask id="mask-4" fill="white">
                                <use xlink:href="#path-3"></use>
                            </mask>
                            <use id="Mask" fill="#C78F75" xlink:href="#path-3"></use>
                            <ellipse id="Oval-6" fill="#C42626" mask="url(#mask-4)" cx="83.9757279" cy="73.2421372" rx="104.521077" ry="82.6903982"></ellipse>
                            <ellipse id="Oval-6-Copy" fill="#C42626" mask="url(#mask-4)" cx="320.890168" cy="87.1899152" rx="138.365997" ry="106.600875"></ellipse>
                        </g>
                        <circle id="Oval-3-Copy-23" fill="#FFFFFF" cx="286" cy="237" r="27"></circle>
                        <path d="M242,326.577887 C242,338.966339 222.25,352 202.5,352 C182.75,352 163,338.966339 163,326.577887 C163,320.30195 182.75,327.458904 202.5,327.458904 C222.25,327.458904 242,320.465373 242,326.577887 Z" id="Oval-5-Copy-4" fill="#000000"></path>
                        <circle id="Oval-3-Copy-24" fill="#8B572A" cx="286" cy="237" r="16"></circle>
                        <path d="M285.00701,248 C291.078271,248 296,243.075132 296,237 C296,230.924868 291.078271,226 285.00701,226 C283.512772,226 282.294491,226.207523 281.352167,226.62257 L283.195227,235.177786 L276.776435,229.707951 C275.081386,231.800807 274.160581,234.23149 274.014019,237 C273.692859,243.06663 278.935749,248 285.00701,248 Z" id="Oval-4-Copy-12" fill="#000000"></path>
                        <circle id="Oval-3-Copy-25" fill="#FFFFFF" cx="119" cy="237" r="27"></circle>
                        <polygon id="Rectangle-Copy-12" fill="#000000" points="251 182.142288 301.630308 170 306 186.857712 255.369692 199"></polygon>
                        <rect id="Rectangle-Copy-13" fill="#000000" x="91" y="163" width="54" height="18"></rect>
                        <circle id="Oval-3-Copy-27" fill="#8B572A" cx="119" cy="237" r="16"></circle>
                        <path d="M119.00701,248 C125.078271,248 130,243.075132 130,237 C130,230.924868 125.078271,226 119.00701,226 C117.512772,226 116.294491,226.207523 115.352167,226.62257 L117.195227,235.177786 L110.776435,229.707951 C109.081386,231.800807 108.160581,234.23149 108.014019,237 C107.692859,243.06663 112.935749,248 119.00701,248 Z" id="Oval-4-Copy-13" fill="#000000"></path>
                    </g>
                </g>
            </g>
        </g>
    </g>
</svg>