<?xml version="1.0" encoding="UTF-8"?>
<svg width="454px" height="625px" viewBox="0 0 454 625" version="1.1" xmlns="http://www.w3.org/2000/svg" xmlns:xlink="http://www.w3.org/1999/xlink">
    <!-- Generator: Sketch 48.2 (47327) - http://www.bohemiancoding.com/sketch -->
    <title>Clara</title>
    <desc>Created with Sketch.</desc>
    <defs>
        <ellipse id="path-1" cx="88" cy="122" rx="88" ry="82"></ellipse>
    </defs>
    <g id="Symbols" stroke="none" stroke-width="1" fill="none" fill-rule="evenodd">
        <g id="Clara">
            <g id="Group" transform="translate(22.000000, 25.000000)">
                <path d="M177.585734,199.595163 C193.118704,197.160194 206.196088,196.819285 216.817888,198.572435 C232.750588,201.20216 239.847401,205.289154 248.202771,209.275974 C272.360758,220.803118 325.018029,274.318344 356.169673,316.999632 C387.321318,359.68092 413.554049,398.887915 404.01014,415.501481 C394.466231,432.115047 380.063195,423.835095 356.169673,443.063002 C332.276151,462.290909 341.058001,476.898549 312.832782,488.874917 C284.607563,500.851284 271.181483,484.243516 248.202771,488.874917 C225.224059,493.506317 210.735594,513.675352 204.535759,510.702376 C200.402537,508.720392 181.553009,473.558017 147.987177,405.215251 L131,300.373552 L145.432236,216.448024 L145.432236,197 L177.585734,199.595163 Z" id="Path-4" fill="#000000"></path>
                <circle id="Oval-7-Copy-7" fill="#A3725A" cx="61" cy="119" r="15"></circle>
                <g id="Oval-6-Copy-5" transform="translate(60.000000, 0.000000)">
                    <path d="M107.027179,50.5021935 C116.544993,51.0818812 123.357547,49.6564009 127.46484,46.2257525 C136.491279,38.686349 137.055299,24.0050869 148.43261,15.5737804 C159.809922,7.14247388 177.111116,4.22333783 193.501126,10.1029137 C209.891136,15.9824896 217.821218,24.3614009 224.152858,41.0602282 C241.020992,85.5476067 183.635957,149.486679 216.855999,150.116748 C225.41244,150.279034 231.188736,147.703012 234.184887,142.388682 C234.087148,155.529455 229.363498,164.359129 220.013935,168.877704 C205.989591,175.655566 191.356867,173.145564 185.561551,168.112052 C179.766235,163.078541 177.214958,159.391079 174.77352,152.488809 C165.895715,127.390068 170.232573,81.7574612 170.232573,66.9001406 C170.232573,61.7792869 167.279541,54.6974021 164.645051,52.3546389 C156.914001,45.4796766 145.682826,51.5777403 138.925121,61.09639 C134.645836,67.1240303 128.06166,67.1089642 119.172591,61.0511916 C116.733844,59.3892203 112.685373,55.8728876 107.027179,50.5021935 Z" id="Path-5" fill="#C42626" transform="translate(170.606033, 90.013834) rotate(-6.000000) translate(-170.606033, -90.013834) "></path>
                    <circle id="Oval-7-Copy-8" fill="#A3725A" cx="175" cy="118" r="15"></circle>
                    <mask id="mask-2" fill="white">
                        <use xlink:href="#path-1"></use>
                    </mask>
                    <use id="Mask" fill="#C78F75" xlink:href="#path-1"></use>
                    <ellipse id="Oval-6" fill="#C42626" mask="url(#mask-2)" cx="27.5" cy="37.5" rx="52.5" ry="41.5"></ellipse>
                    <ellipse id="Oval-6-Copy" fill="#C42626" mask="url(#mask-2)" cx="146.5" cy="44.5" rx="69.5" ry="53.5"></ellipse>
                </g>
                <circle id="Oval-3-Copy-23" fill="#FFFFFF" cx="188" cy="120" r="13"></circle>
                <path d="M166,175.711056 C166,169.516831 156.25,163 146.5,163 C136.75,163 127,169.516831 127,175.711056 C127,178.849025 136.75,175.270548 146.5,175.270548 C156.25,175.270548 166,178.767313 166,175.711056 Z" id="Oval-5-Copy-4" fill="#000000" transform="translate(146.500000, 170.000000) scale(1, -1) translate(-146.500000, -170.000000) "></path>
                <circle id="Oval-3-Copy-24" fill="#8B572A" cx="188" cy="120" r="8"></circle>
                <path d="M188.003823,126 C191.31542,126 194,123.313708 194,120 C194,116.686292 191.31542,114 188.003823,114 C187.188785,114 186.524268,114.113195 186.010273,114.339584 L187.015579,119.006065 L183.514419,116.022519 C182.589847,117.164077 182.087589,118.489904 182.007647,120 C181.832469,123.309071 184.692227,126 188.003823,126 Z" id="Oval-4-Copy-12" fill="#000000"></path>
                <circle id="Oval-3-Copy-25" fill="#FFFFFF" cx="104" cy="120" r="13"></circle>
                <rect id="Rectangle-Copy-12" fill="#000000" transform="translate(185.000000, 93.500000) rotate(-14.000000) translate(-185.000000, -93.500000) " x="172" y="89" width="26" height="9"></rect>
                <rect id="Rectangle-Copy-13" fill="#000000" x="90" y="82" width="26" height="9"></rect>
                <circle id="Oval-3-Copy-27" fill="#8B572A" cx="104" cy="120" r="8"></circle>
                <path d="M104.003823,126 C107.31542,126 110,123.313708 110,120 C110,116.686292 107.31542,114 104.003823,114 C103.188785,114 102.524268,114.113195 102.010273,114.339584 L103.015579,119.006065 L99.5144191,116.022519 C98.5898469,117.164077 98.0875895,118.489904 98.0076468,120 C97.8324686,123.309071 100.692227,126 104.003823,126 Z" id="Oval-4-Copy-13" fill="#000000"></path>
                <path d="M130.126041,179.094511 L165.796012,177.020851 C172.382354,176.637953 178.069976,181.582678 178.60672,188.158271 C178.60672,188.158271 178.60672,188.158271 178.60672,188.158271 C178.696201,189.254488 173.163257,194.66278 175.125394,204.424673 C175.450005,206.039654 176.993807,210.589218 179.7568,218.073366 L179.7568,218.073365 C183.582275,228.435466 178.283292,239.936768 167.921191,243.762242 C165.703604,244.58093 163.35844,245 160.994557,245 L130.000016,245.000002 C118.95432,245.000002 110.000015,236.045696 110.000015,225 C110.000015,222.969646 110.309179,220.95113 110.916879,219.013855 C112.410302,214.252995 113.157014,211.104118 113.157014,209.567225 C113.157014,208.569337 112.842217,207.072089 112.212625,205.075483 L112.212622,205.075483 C108.890805,194.541114 114.737734,183.308456 125.272104,179.986639 C126.847047,179.49001 128.477436,179.190353 130.126041,179.094511 Z" id="Rectangle-Copy-2" fill="#C78F75" transform="translate(145.500003, 211.000019) scale(-1, 1) rotate(7.000000) translate(-145.500003, -211.000019) "></path>
                <rect id="Rectangle-5" fill="#746666" x="65" y="525" width="81" height="19"></rect>
                <rect id="Rectangle-5" fill="#104969" x="81" y="372" width="65" height="154"></rect>
                <rect id="Rectangle-5" fill="#104969" x="151" y="372" width="65" height="154"></rect>
                <rect id="Rectangle-6" fill="#C78F75" transform="translate(233.000000, 256.000000) rotate(45.000000) translate(-233.000000, -256.000000) " x="169" y="233" width="128" height="46" rx="23"></rect>
                <rect id="Rectangle-6" fill="#C78F75" transform="translate(244.000000, 308.000000) scale(-1, 1) rotate(45.000000) translate(-244.000000, -308.000000) " x="194" y="285" width="100" height="46" rx="23"></rect>
                <rect id="Rectangle-6" fill="#C78F75" transform="translate(64.500000, 259.000000) scale(-1, 1) rotate(45.000000) translate(-64.500000, -259.000000) " x="-3" y="236" width="135" height="46" rx="23"></rect>
                <rect id="Rectangle-6" fill="#C78F75" transform="translate(54.000000, 312.000000) rotate(45.000000) translate(-54.000000, -312.000000) " x="2" y="289" width="104" height="46" rx="23"></rect>
                <rect id="Rectangle-5" fill="#104969" x="81" y="361" width="135" height="73"></rect>
                <path d="M102.359289,203.001574 C116.906598,203.001574 122.815216,213.742781 145.448472,213.742781 C168.081727,213.742781 192.025642,202.519192 203.472246,203.80649 C214.918851,205.093788 216.930597,206.11775 234.055807,222.962436 C251.181016,239.807122 260.872882,243.707568 258.697391,249.807568 C257.247063,253.874235 242.339023,261.902541 213.973269,273.892487 C215.324322,299.485557 216.163988,315.968604 216.492267,323.341628 C216.93478,333.280279 216.802853,341.946726 217.439919,348.342748 C218.464306,358.627401 220.024169,363.866003 218.253497,365.271114 C196.506844,382.528102 182.574447,376.092932 167.296159,374.533818 C144.422794,372.199645 127.497377,369.208581 112.789113,370.828966 C100.818695,372.147727 89.8897571,375.336107 83.4680754,369.899202 C79.7422456,366.744736 81.2762425,361.257689 81.1739512,348.342748 C81.1019069,339.246676 82.0607631,319.616406 84.05052,289.451939 C84.4845241,281.952446 84.2903759,277.922755 83.4680754,277.362866 C63.4814822,263.75437 42.2918456,253.169038 39.7677767,247.746078 C36.4734456,240.668211 43.761293,237.347752 62.0014966,219.918837 C80.2417002,202.489922 87.8119804,203.001574 102.359289,203.001574 Z" id="Rectangle-5-Copy" fill="#006298"></path>
                <rect id="Rectangle-5" fill="#746666" x="151" y="525" width="81" height="19"></rect>
                <text id="#" font-family="ProximaNova-Bold, Proxima Nova" font-size="64" font-weight="bold" fill="#FFFFFF">
                    <tspan x="129" y="293">#</tspan>
                </text>
            </g>
        </g>
    </g>
</svg>